<?xml version="1.0" encoding="UTF-8"?>
<svg xmlns="http://www.w3.org/2000/svg" xmlns:xlink="http://www.w3.org/1999/xlink" width="180pt" height="37pt" viewBox="0 0 180 37" version="1.1">
<g id="surface1">
<path style=" stroke:none;fill-rule:evenodd;fill:rgb(16.078431%,17.647059%,44.313725%);fill-opacity:1;" d="M 20.398438 31.902344 C 20.636719 31.703125 20.859375 31.402344 22.066406 31.199219 C 22.066406 31.199219 63.019531 21.679688 117.496094 23.582031 C 117.496094 23.582031 120.589844 23.503906 119.75 24.429688 C 119.257812 24.972656 118.339844 25.007812 116.59375 25.070312 C 116.59375 25.070312 116 25.132812 113.683594 25.117188 C 113.683594 25.117188 119.253906 26.597656 97.261719 26.289062 C 97.261719 26.289062 99.203125 27.644531 91.117188 27.253906 C 91.117188 27.253906 68.5625 26.550781 22.976562 32.207031 C 22.976562 32.207031 19.394531 32.738281 20.398438 31.902344 "/>
<path style=" stroke:none;fill-rule:evenodd;fill:rgb(9.411765%,9.803922%,8.627451%);fill-opacity:1;" d="M 141.003906 19.152344 C 141.003906 19.152344 147.378906 22.75 139.46875 22.566406 C 139.46875 22.566406 137.929688 22.648438 136.984375 20.480469 C 136.984375 20.480469 134.269531 16.226562 134.464844 14.621094 C 134.195312 14.828125 132.691406 16.070312 131.828125 17.441406 C 131.332031 18.234375 131.128906 18.511719 130.414062 19.269531 C 130.023438 19.648438 129.648438 19.992188 129.300781 20.214844 C 125.804688 22.429688 125.46875 19.601562 125.46875 19.601562 C 124.746094 17.1875 126.554688 13.3125 126.554688 13.3125 C 127.871094 10.640625 129.800781 11.738281 129.800781 11.738281 C 132.480469 12.21875 131.394531 13.984375 131.394531 13.984375 C 130.824219 15.332031 130.3125 15.039062 130.3125 15.039062 C 129.648438 15.339844 129.46875 15.984375 129.421875 16.394531 C 129.421875 16.394531 129.171875 17.890625 130.152344 16.742188 C 130.886719 15.71875 132.3125 14.015625 133.347656 13.46875 C 133.347656 13.46875 134.871094 12.359375 135.765625 13.273438 C 135.765625 13.273438 139.609375 18.566406 141.003906 19.152344 Z M 31.957031 30.554688 C 33.589844 32.113281 34.839844 33.214844 34.496094 33.421875 C 33.386719 34.082031 28.386719 31.40625 28.386719 31.40625 C 19.691406 26.472656 15.847656 20.179688 15.007812 18.652344 C 14.882812 18.429688 15.128906 18.230469 15.128906 18.230469 C 15.425781 18.003906 15.898438 17.878906 17.160156 17.78125 C 17.15625 17.78125 17.164062 17.78125 17.160156 17.78125 C 16.5 17.5625 16.292969 17.507812 16.347656 17.355469 C 16.476562 17.109375 17.695312 17.117188 17.695312 17.117188 C 18.65625 17.085938 19.351562 17.046875 19.351562 17.046875 C 20.761719 16.941406 21.480469 16.851562 21.480469 16.851562 C 24.480469 16.523438 25.65625 15.632812 25.65625 15.632812 C 28.625 13.574219 23.855469 11.511719 23.855469 11.511719 C 11.769531 6.757812 2.039062 9.011719 2.039062 9.011719 C 1.511719 9.113281 1.105469 9.117188 0.527344 8.988281 C -0.738281 8.699219 1.515625 7.46875 1.515625 7.46875 C 7.507812 4.070312 10.652344 5.089844 10.652344 5.089844 C 22.296875 5.617188 27.417969 9.785156 27.417969 9.785156 C 31.476562 12.722656 30.425781 15.066406 29.878906 15.75 C 27.894531 18.234375 23.191406 18.296875 23.191406 18.296875 C 22.457031 18.324219 21.816406 18.339844 21.25 18.339844 C 21.789062 18.761719 22.183594 19.5 22.183594 19.5 C 23.089844 21.4375 31.957031 30.554688 31.957031 30.554688 Z M 16.3125 10.59375 C 16.964844 11.410156 16.09375 12.707031 16.09375 12.707031 C 12.320312 17.988281 7.601562 30.460938 6.660156 33.007812 L 6.679688 33.003906 C 6.679688 33.003906 6.65625 33.042969 6.621094 33.113281 C 6.535156 33.34375 6.492188 33.464844 6.492188 33.464844 C 6.429688 33.652344 6.363281 33.820312 6.296875 33.980469 C 6.191406 34.371094 6.113281 34.863281 6.132812 35.425781 L 6.121094 35.421875 C 6.152344 36.097656 6.109375 36.789062 5.8125 36.882812 C 4.960938 37.148438 4.523438 36.371094 4.289062 35.523438 C 3.457031 35.394531 2.777344 34.65625 2.777344 34.65625 C -0.28125 33.253906 2.003906 29.355469 2.003906 29.355469 C 4.082031 23.707031 14.378906 11.800781 14.378906 11.800781 C 15.585938 10.46875 16.085938 10.308594 16.3125 10.59375 Z M 40.039062 21.648438 C 39.785156 21.929688 39.539062 22.246094 38.875 22.539062 C 38.875 22.539062 35.472656 23.964844 35.589844 21.949219 C 35.589844 21.949219 35.703125 20.835938 36.265625 19.796875 C 36.265625 19.796875 37.832031 17.070312 40.261719 15.480469 C 40.484375 15.328125 40.679688 15.3125 40.804688 15.425781 C 41.140625 15.746094 41.199219 16.105469 41.457031 16.402344 C 41.523438 16.480469 41.601562 16.5625 41.679688 16.640625 C 41.390625 17.660156 40.644531 19.601562 40.519531 21.066406 C 40.425781 21.269531 40.214844 21.457031 40.039062 21.648438 Z M 49.007812 20.386719 C 49.007812 20.386719 48.992188 20.320312 48.90625 20.269531 C 48.683594 20.160156 47.578125 20.503906 46.484375 20.953125 C 46.3125 21.023438 46.152344 21.085938 46.007812 21.144531 C 45.605469 21.3125 45.21875 21.484375 45.0625 21.578125 C 45.0625 21.578125 44.355469 21.960938 44.433594 21.097656 C 44.433594 21.085938 44.4375 21.074219 44.4375 21.0625 C 44.449219 20.871094 44.503906 20.625 44.519531 20.367188 C 44.519531 20.367188 45.484375 17.726562 45.902344 16.988281 C 45.902344 16.988281 46.132812 16.289062 46.492188 15.496094 C 46.492188 15.496094 48.136719 14.328125 45.117188 13.945312 C 45.117188 13.945312 43.671875 11.515625 42.117188 15.34375 C 42.007812 14.949219 41.480469 14.34375 40.667969 14.101562 C 40.507812 14.039062 40.277344 13.992188 39.957031 13.972656 C 39.835938 13.964844 39.757812 13.988281 39.488281 13.964844 C 39.488281 13.964844 38.042969 13.621094 36.488281 14.949219 C 34.839844 16.191406 30.027344 20.140625 31.128906 23.449219 C 31.128906 23.449219 31.722656 25.160156 33.945312 25.152344 C 33.945312 25.152344 36.882812 25.175781 39.105469 23.734375 C 39.105469 23.734375 39.773438 23.332031 40.484375 22.734375 C 40.511719 22.9375 40.558594 23.160156 40.644531 23.382812 C 40.660156 23.425781 40.671875 23.46875 40.691406 23.507812 C 40.691406 23.507812 40.773438 23.894531 41.230469 24.183594 C 41.570312 24.394531 42.113281 24.558594 42.976562 24.476562 C 43.066406 24.464844 43.15625 24.449219 43.25 24.429688 C 43.25 24.429688 46.359375 23.914062 46.285156 23.011719 C 46.246094 22.5625 46.480469 22.472656 46.480469 22.472656 C 46.480469 22.472656 46.679688 22.398438 46.609375 22.242188 C 46.609375 22.242188 49.09375 21.105469 49.007812 20.386719 Z M 102.789062 13.496094 C 104.175781 14.160156 106.5 15.628906 106.113281 17.160156 C 106.113281 17.160156 105.445312 20.613281 97.101562 20.496094 C 97.101562 20.496094 96.191406 20.460938 96.175781 20.074219 C 96.175781 19.792969 96.347656 19.566406 97.066406 19.378906 C 97.066406 19.378906 102.492188 18.175781 98.9375 13.714844 C 98.9375 13.714844 97.59375 14.425781 95.710938 15.425781 C 95.710938 15.425781 94.398438 16.417969 94.492188 15.007812 C 94.492188 15.007812 94.609375 14.226562 95.097656 13.929688 C 95.097656 13.929688 98.121094 12.707031 99.125 10.796875 C 99.628906 9.535156 102.324219 8.46875 102.585938 9.53125 C 102.707031 10.007812 101.902344 10.308594 101.507812 10.648438 C 100.605469 11.421875 101.761719 13.054688 102.789062 13.496094 Z M 114.886719 10.910156 C 116.339844 9.59375 117.359375 10.191406 117.359375 10.191406 C 117.5 10.242188 117.789062 10.179688 117.910156 10.171875 C 119.839844 10.074219 118.253906 11.371094 118.253906 11.371094 C 116.628906 12.886719 115.152344 15.71875 115.152344 15.71875 C 114.78125 16.359375 114.421875 17.390625 114.421875 17.390625 C 113.832031 19.109375 116.476562 17.894531 116.476562 17.894531 C 116.855469 17.710938 117.203125 17.449219 117.378906 17.335938 C 117.683594 17.136719 117.945312 17.117188 117.945312 17.117188 C 118.496094 17.0625 117.558594 15.09375 117.558594 15.09375 C 117.15625 14.316406 117.226562 14.28125 117.226562 14.28125 C 116.96875 13.328125 117.746094 13.082031 117.746094 13.082031 C 118.574219 12.734375 119.238281 13.640625 119.238281 13.640625 C 119.976562 14.410156 120.632812 16.441406 120.632812 16.441406 C 121.265625 18.238281 119.296875 18.097656 119.296875 18.097656 C 118.480469 18.207031 117.085938 19.15625 117.085938 19.15625 C 114.914062 20.386719 111.882812 20.507812 111.882812 20.507812 C 108.878906 20.578125 109.117188 18.765625 109.117188 18.765625 C 109.09375 16.804688 114.886719 10.910156 114.886719 10.910156 Z M 80.242188 6.28125 C 80.15625 6.820312 79.738281 7.265625 79.167969 7.503906 C 78.351562 7.925781 76.664062 8.644531 76.121094 8.546875 C 75.570312 8.449219 76.191406 7.257812 76.222656 6.921875 C 76.253906 6.546875 76.253906 6.269531 76.363281 5.921875 C 76.539062 5.109375 77.492188 4.519531 78.535156 4.597656 C 79.609375 4.675781 80.375 5.429688 80.242188 6.28125 Z M 87.523438 11.578125 C 87.523438 11.578125 92.433594 15.160156 92.230469 17.640625 C 92.230469 17.640625 91.5625 21.089844 83.21875 20.972656 C 83.21875 20.972656 81.152344 20.761719 83.183594 19.855469 C 83.183594 19.855469 88.605469 18.65625 85.054688 14.191406 C 85.054688 14.191406 81.695312 16.890625 79.472656 18.386719 L 79.488281 18.398438 C 73.128906 22.644531 71.878906 21.085938 71.878906 21.085938 C 69.457031 18.714844 71.230469 13.527344 71.230469 13.527344 C 72.171875 10.78125 74.246094 11.75 74.246094 11.75 C 77.277344 12.089844 76.140625 13.882812 76.140625 13.882812 C 75.757812 15.261719 75.265625 15.109375 75.265625 15.109375 C 74.332031 15.628906 74.132812 17.898438 74.132812 17.898438 C 74.507812 19.152344 72.882812 20.894531 77.585938 18.097656 C 78.707031 17.328125 84.34375 12.984375 85.242188 11.273438 C 85.242188 11.273438 86.179688 9.609375 87.523438 11.578125 Z M 56.125 20.191406 C 56.125 20.191406 55.5 19.910156 55.539062 18.625 C 55.539062 18.625 55.714844 16.398438 57.925781 14.617188 C 57.925781 14.617188 58.539062 14.082031 59.042969 14.015625 C 59.210938 13.996094 59.480469 14.164062 59.605469 14.84375 C 59.636719 15.011719 58.933594 15.046875 59.191406 15.578125 C 59.191406 15.578125 60.367188 17.613281 62.84375 16.695312 C 62.738281 17.113281 62.628906 17.535156 62.511719 17.957031 C 61.222656 19.183594 58.507812 21.304688 56.125 20.191406 Z M 66.65625 1.101562 C 66.65625 1.101562 63.945312 -1.238281 64.402344 1.460938 C 64.402344 1.460938 64.773438 7.089844 63.417969 14.097656 C 63.261719 13.824219 63.050781 13.546875 62.765625 13.273438 C 62.765625 13.273438 60.402344 11.113281 57.75 11.710938 C 57.75 11.710938 54.367188 12.441406 52.410156 15.9375 C 52.410156 15.9375 51.027344 18.351562 51.417969 20.171875 C 51.417969 20.171875 51.289062 24.949219 59.785156 21.574219 C 59.785156 21.574219 60.683594 21.199219 61.738281 20.464844 C 61.535156 21.0625 61.203125 21.453125 61.167969 22.066406 C 61.167969 22.066406 60.863281 23.328125 61.707031 23.644531 C 62.027344 23.765625 62.375 23.597656 63.125 22.371094 C 63.125 22.371094 69.164062 11.765625 69.488281 7.386719 C 69.488281 7.386719 71.609375 5.210938 66.65625 1.101562 Z M 66.65625 1.101562 "/>
<path style=" stroke:none;fill-rule:evenodd;fill:rgb(16.078431%,17.647059%,44.313725%);fill-opacity:1;" d="M 123.453125 23.804688 C 125.117188 23.871094 126.992188 23.886719 129.585938 24.0625 C 130.933594 24.148438 133.015625 24.148438 133.308594 24.75 C 133.578125 25.296875 132.5625 25.863281 130.75 26.101562 C 129.832031 26.226562 129.253906 26.328125 128.425781 26.308594 C 127.445312 26.285156 125.347656 26.335938 125.285156 25.5625 C 125.242188 25.078125 123.871094 25.085938 122.953125 25.058594 C 121.121094 25.011719 121.308594 24.65625 121.707031 24.226562 C 121.945312 23.964844 122.449219 23.796875 123.453125 23.804688 "/>
<path style=" stroke:none;fill-rule:evenodd;fill:rgb(16.078431%,17.647059%,44.313725%);fill-opacity:1;" d="M 179.738281 4.820312 C 179.738281 4.457031 179.304688 4.160156 178.773438 4.160156 L 148.566406 4.164062 C 148.035156 4.164062 147.601562 4.460938 147.601562 4.824219 L 147.609375 25.503906 C 147.609375 25.867188 148.042969 26.164062 148.570312 26.164062 L 178.777344 26.160156 C 179.308594 26.160156 179.742188 25.863281 179.742188 25.5 L 179.738281 4.820312 "/>
<path style=" stroke:none;fill-rule:evenodd;fill:rgb(33.333333%,32.941176%,58.039216%);fill-opacity:1;" d="M 175.414062 18.199219 C 174.929688 17.417969 174.796875 16.417969 174.714844 15.605469 C 173.582031 17.332031 171.882812 19.992188 169.953125 19.785156 C 168.804688 19.664062 168.722656 18.300781 168.996094 16.980469 C 168.234375 18.101562 167.507812 19.265625 166.628906 19.964844 C 166.628906 19.964844 166.5625 20.023438 166.421875 20.136719 C 166.207031 20.3125 165.675781 20.714844 165.183594 20.800781 C 165.148438 20.804688 165.089844 20.8125 165.035156 20.816406 C 164.886719 20.832031 164.734375 20.824219 164.570312 20.796875 C 164.183594 20.714844 163.820312 20.453125 163.507812 19.957031 C 163.449219 19.867188 163.402344 19.773438 163.363281 19.675781 C 163.320312 19.542969 163.289062 19.414062 163.265625 19.289062 C 162.929688 19.667969 162.539062 20.019531 162.113281 20.304688 C 160.710938 21.242188 159.199219 21.820312 157.414062 22.167969 C 155.804688 22.484375 153.828125 22.746094 152.238281 22.207031 C 150.621094 21.660156 150.339844 20.378906 151.058594 19.289062 C 151.320312 18.886719 151.484375 19.128906 151.375 19.589844 C 151.335938 19.761719 151.296875 19.925781 151.289062 20.097656 C 151.160156 22.890625 157.484375 21.5625 159.226562 20.875 C 160.519531 20.363281 161.035156 19.980469 161.667969 19.539062 C 162.527344 18.945312 163.140625 17.921875 163.289062 17.046875 C 163.648438 14.957031 159.84375 14.972656 158.046875 15.023438 C 157.988281 15.027344 157.929688 15.019531 157.878906 15.007812 C 157.675781 15.386719 157.460938 15.765625 157.238281 16.136719 C 156.804688 16.867188 156.410156 17.476562 155.984375 18.207031 C 155.625 18.820312 155.066406 19.605469 154.519531 20.128906 C 154.191406 20.445312 153.933594 20.339844 153.957031 19.964844 C 153.996094 19.304688 154.515625 18.574219 154.875 17.984375 C 155.285156 17.3125 155.710938 16.644531 156.125 15.96875 C 156.9375 14.640625 157.726562 13.289062 158.195312 11.859375 C 158.332031 11.441406 159.183594 11.507812 159.082031 11.953125 C 158.96875 12.464844 158.808594 12.960938 158.609375 13.453125 C 159.1875 12.914062 159.78125 12.382812 160.277344 11.792969 C 160.777344 11.203125 161.867188 9.609375 160.511719 9.125 C 159.402344 8.726562 157.90625 9.363281 157.054688 9.835938 C 156.113281 10.355469 155.066406 11.03125 154.289062 11.886719 C 153.921875 12.195312 153.6875 12.015625 153.863281 11.769531 C 154.558594 10.816406 155.847656 9.890625 157.015625 9.289062 C 158.101562 8.730469 159.859375 7.980469 161.15625 8.613281 C 162.628906 9.332031 162.066406 10.824219 161.363281 11.769531 C 160.6875 12.671875 159.8125 13.445312 158.992188 14.261719 C 160.746094 14.253906 162.878906 14.421875 163.867188 15.542969 C 163.972656 15.664062 164.058594 15.789062 164.132812 15.914062 C 164.570312 15.109375 165.046875 14.4375 165.390625 13.917969 C 166.703125 11.945312 167.394531 11.089844 169.101562 9.390625 C 169.335938 9.152344 169.691406 9.417969 169.488281 9.664062 C 167.089844 12.53125 165.515625 14.722656 164.527344 17.414062 C 164.449219 17.640625 164.382812 17.859375 164.355469 17.984375 C 164.359375 17.984375 164.347656 18.003906 164.351562 18.007812 C 164.253906 18.5 164.207031 19.175781 164.53125 19.585938 C 164.597656 19.671875 164.667969 19.730469 164.746094 19.773438 C 164.75 19.773438 164.75 19.777344 164.75 19.777344 C 165.175781 19.996094 165.707031 19.601562 165.976562 19.351562 C 166.679688 18.75 167.292969 18.0625 167.824219 17.328125 C 168.703125 16.125 169.613281 14.832031 170.171875 13.46875 C 170.347656 13.039062 171.089844 13.132812 171.054688 13.621094 C 171 14.410156 170.6875 15.167969 170.472656 15.925781 C 170.324219 16.449219 169.363281 19.597656 170.863281 18.621094 C 172.507812 17.550781 173.574219 15.84375 174.660156 14.320312 C 174.855469 14.046875 175.390625 14.09375 175.457031 14.453125 C 175.664062 15.617188 175.6875 16.695312 176.230469 17.800781 C 176.476562 18.304688 175.710938 18.6875 175.414062 18.199219 "/>
<path style=" stroke:none;fill-rule:evenodd;fill:rgb(100%,100%,99.607843%);fill-opacity:1;" d="M 177.152344 13.300781 L 177.152344 17.0625 C 177.152344 18.238281 176.105469 18.476562 174.425781 18.476562 L 171.167969 18.476562 C 169.488281 18.476562 168.445312 18.238281 168.445312 17.0625 L 168.445312 13.300781 L 169.824219 13.300781 L 169.824219 17.054688 C 169.824219 17.414062 169.917969 17.652344 171.140625 17.652344 L 174.453125 17.652344 C 175.679688 17.652344 175.769531 17.414062 175.769531 17.054688 L 175.769531 13.300781 Z M 161.773438 17.597656 L 167.246094 17.597656 L 167.246094 18.421875 L 160.390625 18.421875 L 160.390625 13.300781 L 161.773438 13.300781 Z M 151.535156 16.199219 C 151.925781 16.199219 156.222656 16.199219 156.222656 16.199219 C 157.128906 16.199219 157.367188 16.3125 157.367188 16.75 L 157.367188 17.097656 C 157.367188 17.40625 157.199219 17.597656 156.371094 17.597656 C 156.371094 17.597656 151.925781 17.597656 151.535156 17.597656 C 151.535156 17.375 151.535156 16.421875 151.535156 16.199219 Z M 157.09375 14.929688 C 157.09375 15.136719 156.996094 15.375 156.253906 15.375 C 156.253906 15.375 151.925781 15.375 151.535156 15.375 C 151.535156 15.160156 151.535156 14.339844 151.535156 14.125 C 151.925781 14.125 156.304688 14.125 156.304688 14.125 C 156.433594 14.125 157.09375 14.144531 157.09375 14.488281 Z M 157.859375 15.675781 C 158.242188 15.519531 158.472656 15.269531 158.472656 14.933594 L 158.472656 14.523438 C 158.472656 14.066406 158.203125 13.300781 156.390625 13.300781 L 150.15625 13.300781 L 150.15625 18.421875 L 156.488281 18.421875 C 157.859375 18.421875 158.746094 17.960938 158.746094 17.25 L 158.746094 16.675781 C 158.746094 16.164062 158.445312 15.832031 157.859375 15.675781 Z M 157.859375 15.675781 "/>
</g>
</svg>
